<svg xmlns="http://www.w3.org/2000/svg" viewBox="0 0 24 24" fill="none" stroke="#22c55e" stroke-width="1.8" stroke-linecap="round" stroke-linejoin="round">
  <path d="M6 20c-2.2 0-3.5-1.8-3.2-4l1-7C4.2 7 5.7 6 7.5 6h9c1.8 0 3.3 1 3.7 3l1 7c.3 2.2-1 4-3.2 4-1.5 0-2.7-.9-3.4-2.2L13.6 16h-3.2l-.9 1.8C8.7 19.1 7.5 20 6 20Z"/>
  <path d="M7.5 10v3"/>
  <path d="M6 11.5h3"/>
  <circle cx="15.5" cy="10.5" r="1" fill="currentColor" stroke="none"/>
  <circle cx="17" cy="12.5" r="1" fill="currentColor" stroke="none"/>
</svg>
