<svg xmlns="http://www.w3.org/2000/svg" viewBox="0 0 24 24" fill="none" stroke="#a855f7" stroke-width="1.8" stroke-linecap="round" stroke-linejoin="round">
  <path d="M3.5 9c0-1.1.9-2 2-2h13c1.1 0 2 .9 2 2v5c0 1.1-.9 2-2 2h-3.2c-.6 0-1.2-.3-1.5-.8l-1-1.4c-.4-.5-1.2-.5-1.6 0l-1 1.4c-.3.5-.9.8-1.5.8H5.5c-1.1 0-2-.9-2-2V9Z"/>
  <circle cx="8" cy="11.5" r="1.6" fill="#a855f7" stroke="none"/>
  <circle cx="16" cy="11.5" r="1.6" fill="#a855f7" stroke="none"/>
  <path d="M2 10v3"/>
  <path d="M22 10v3"/>
</svg>
