<svg xmlns="http://www.w3.org/2000/svg" viewBox="0 0 24 16">
  <rect width="24" height="16" fill="#FFFFFF"/>
  <g fill="#B22234">
    <rect y="0" width="24" height="1.23"/>
    <rect y="2.46" width="24" height="1.23"/>
    <rect y="4.92" width="24" height="1.23"/>
    <rect y="7.38" width="24" height="1.23"/>
    <rect y="9.85" width="24" height="1.23"/>
    <rect y="12.31" width="24" height="1.23"/>
    <rect y="14.77" width="24" height="1.23"/>
  </g>
  <rect width="9.6" height="8.62" fill="#3C3B6E"/>
  <g fill="#FFFFFF">
    <circle cx="1.6" cy="1.4" r="0.32"/>
    <circle cx="3.2" cy="1.4" r="0.32"/>
    <circle cx="4.8" cy="1.4" r="0.32"/>
    <circle cx="6.4" cy="1.4" r="0.32"/>
    <circle cx="8" cy="1.4" r="0.32"/>
    <circle cx="2.4" cy="2.8" r="0.32"/>
    <circle cx="4" cy="2.8" r="0.32"/>
    <circle cx="5.6" cy="2.8" r="0.32"/>
    <circle cx="7.2" cy="2.8" r="0.32"/>
    <circle cx="1.6" cy="4.2" r="0.32"/>
    <circle cx="3.2" cy="4.2" r="0.32"/>
    <circle cx="4.8" cy="4.2" r="0.32"/>
    <circle cx="6.4" cy="4.2" r="0.32"/>
    <circle cx="8" cy="4.2" r="0.32"/>
    <circle cx="2.4" cy="5.6" r="0.32"/>
    <circle cx="4" cy="5.6" r="0.32"/>
    <circle cx="5.6" cy="5.6" r="0.32"/>
    <circle cx="7.2" cy="5.6" r="0.32"/>
    <circle cx="1.6" cy="7" r="0.32"/>
    <circle cx="3.2" cy="7" r="0.32"/>
    <circle cx="4.8" cy="7" r="0.32"/>
    <circle cx="6.4" cy="7" r="0.32"/>
    <circle cx="8" cy="7" r="0.32"/>
  </g>
</svg>
